%TF.GenerationSoftware,KiCad,Pcbnew,8.0.3*%
%TF.CreationDate,2024-09-01T12:25:55-04:00*%
%TF.ProjectId,Cradle_Rocker_Board_RV01,43726164-6c65-45f5-926f-636b65725f42,rev?*%
%TF.SameCoordinates,Original*%
%TF.FileFunction,Copper,L1,Top*%
%TF.FilePolarity,Positive*%
%FSLAX46Y46*%
G04 Gerber Fmt 4.6, Leading zero omitted, Abs format (unit mm)*
G04 Created by KiCad (PCBNEW 8.0.3) date 2024-09-01 12:25:55*
%MOMM*%
%LPD*%
G01*
G04 APERTURE LIST*
%TA.AperFunction,SMDPad,CuDef*%
%ADD10R,1.200000X3.300000*%
%TD*%
%TA.AperFunction,SMDPad,CuDef*%
%ADD11R,1.200000X0.600000*%
%TD*%
%TA.AperFunction,SMDPad,CuDef*%
%ADD12R,4.650000X4.510000*%
%TD*%
%TA.AperFunction,ComponentPad*%
%ADD13C,5.600000*%
%TD*%
%TA.AperFunction,SMDPad,CuDef*%
%ADD14R,0.650000X0.460000*%
%TD*%
%TA.AperFunction,SMDPad,CuDef*%
%ADD15R,0.830000X1.010000*%
%TD*%
%TA.AperFunction,ComponentPad*%
%ADD16C,1.574800*%
%TD*%
%TA.AperFunction,ComponentPad*%
%ADD17R,1.800000X1.800000*%
%TD*%
%TA.AperFunction,ComponentPad*%
%ADD18C,1.800000*%
%TD*%
%TA.AperFunction,SMDPad,CuDef*%
%ADD19R,1.010000X0.830000*%
%TD*%
%TA.AperFunction,SMDPad,CuDef*%
%ADD20R,5.330000X3.630000*%
%TD*%
%TA.AperFunction,ViaPad*%
%ADD21C,0.600000*%
%TD*%
%TA.AperFunction,Conductor*%
%ADD22C,0.500000*%
%TD*%
G04 APERTURE END LIST*
D10*
%TO.P,Q1,1,S*%
%TO.N,GND*%
X210500000Y-87880000D03*
D11*
%TO.P,Q1,2,G*%
%TO.N,/DRV*%
X210500000Y-85260000D03*
D12*
%TO.P,Q1,3,D*%
%TO.N,/coil-*%
X206675000Y-87165000D03*
%TD*%
D13*
%TO.P,H1,1,1*%
%TO.N,GND*%
X196000000Y-66000000D03*
%TD*%
D14*
%TO.P,Q3,1,G*%
%TO.N,/GPIO*%
X218250000Y-77499998D03*
%TO.P,Q3,2,S*%
%TO.N,GND*%
X218250000Y-76500000D03*
%TO.P,Q3,3,D*%
%TO.N,Net-(Q2-G)*%
X216827600Y-76999999D03*
%TD*%
D15*
%TO.P,R3,1*%
%TO.N,VUSB*%
X214780000Y-81000000D03*
%TO.P,R3,2*%
%TO.N,Net-(Q2-G)*%
X216300000Y-81000000D03*
%TD*%
D16*
%TO.P,J3,1,Pin_1*%
%TO.N,unconnected-(J3-Pin_1-Pad1)*%
X226247150Y-81000000D03*
%TO.P,J3,2,Pin_2*%
%TO.N,unconnected-(J3-Pin_2-Pad2)*%
X226247150Y-83540000D03*
%TO.P,J3,3,Pin_3*%
%TO.N,/GPIO*%
X226247150Y-86080000D03*
%TO.P,J3,4,Pin_4*%
%TO.N,GND*%
X226247150Y-88620000D03*
%TD*%
D17*
%TO.P,J2,1,Pin_1*%
%TO.N,/coil+*%
X197800000Y-83960117D03*
D18*
%TO.P,J2,2,Pin_2*%
%TO.N,/coil-*%
X197800000Y-87460117D03*
%TD*%
D19*
%TO.P,R2,1*%
%TO.N,VUSB*%
X213500000Y-83240000D03*
%TO.P,R2,2*%
%TO.N,/DRV*%
X213500000Y-84760000D03*
%TD*%
D14*
%TO.P,Q2,1,G*%
%TO.N,Net-(Q2-G)*%
X217700000Y-84499998D03*
%TO.P,Q2,2,S*%
%TO.N,GND*%
X217700000Y-83500000D03*
%TO.P,Q2,3,D*%
%TO.N,/DRV*%
X216277600Y-83999999D03*
%TD*%
D17*
%TO.P,J1,1,Pin_1*%
%TO.N,VBUS*%
X197825000Y-75215000D03*
D18*
%TO.P,J1,2,Pin_2*%
%TO.N,GND*%
X197825000Y-78715000D03*
%TD*%
D13*
%TO.P,H3,1,1*%
%TO.N,GND*%
X196000000Y-94000000D03*
%TD*%
D17*
%TO.P,J4,1,Pin_1*%
%TO.N,VUSB*%
X224522150Y-76402600D03*
D18*
%TO.P,J4,2,Pin_2*%
%TO.N,GND*%
X224522150Y-72902600D03*
%TD*%
D13*
%TO.P,H2,1,1*%
%TO.N,GND*%
X226247150Y-66000000D03*
%TD*%
%TO.P,H4,1,1*%
%TO.N,GND*%
X226247150Y-94000000D03*
%TD*%
D20*
%TO.P,R1,1*%
%TO.N,VBUS*%
X206900000Y-76560000D03*
%TO.P,R1,2*%
%TO.N,/coil+*%
X206900000Y-80800000D03*
%TD*%
D21*
%TO.N,GND*%
X211530000Y-88580000D03*
X217700000Y-82700000D03*
X212030000Y-86480000D03*
X211530000Y-87170000D03*
X218250000Y-75700000D03*
X212030000Y-89280000D03*
X212030000Y-87880000D03*
%TD*%
D22*
%TO.N,GND*%
X218250000Y-75700000D02*
X218250000Y-76490000D01*
X210500000Y-87880000D02*
X212030000Y-87880000D01*
X210500000Y-87170000D02*
X211530000Y-87170000D01*
X210500000Y-88580000D02*
X211530000Y-88580000D01*
X210500000Y-89280000D02*
X212030000Y-89280000D01*
X217700000Y-83500000D02*
X217700000Y-82700000D01*
X210500000Y-86480000D02*
X212030000Y-86480000D01*
%TO.N,VBUS*%
X197825000Y-75215000D02*
X205555000Y-75215000D01*
X205555000Y-75215000D02*
X206900000Y-76560000D01*
%TO.N,/coil-*%
X206379883Y-87460117D02*
X206675000Y-87165000D01*
X197800000Y-87460117D02*
X206379883Y-87460117D01*
%TO.N,/coil+*%
X203295000Y-80800000D02*
X200134883Y-83960117D01*
X206900000Y-80800000D02*
X203295000Y-80800000D01*
X200134883Y-83960117D02*
X197800000Y-83960117D01*
%TO.N,/GPIO*%
X224780000Y-86080000D02*
X226247150Y-86080000D01*
X218250000Y-77499998D02*
X218250000Y-79550000D01*
X218250000Y-79550000D02*
X224780000Y-86080000D01*
%TO.N,VUSB*%
X213500000Y-83240000D02*
X213500000Y-82280000D01*
X213500000Y-82280000D02*
X214780000Y-81000000D01*
X214780000Y-76120000D02*
X216500000Y-74400000D01*
X216500000Y-74400000D02*
X218800000Y-74400000D01*
X214780000Y-81000000D02*
X214780000Y-76120000D01*
X220802600Y-76402600D02*
X224522150Y-76402600D01*
X218800000Y-74400000D02*
X220802600Y-76402600D01*
%TO.N,/DRV*%
X211500000Y-85260000D02*
X210500000Y-85260000D01*
X213500000Y-84760000D02*
X212000000Y-84760000D01*
X213500000Y-84760000D02*
X215517599Y-84760000D01*
X215517599Y-84760000D02*
X216277600Y-83999999D01*
X212000000Y-84760000D02*
X211500000Y-85260000D01*
%TO.N,Net-(Q2-G)*%
X216300000Y-77527599D02*
X216827600Y-76999999D01*
X218155002Y-84499998D02*
X217700000Y-84499998D01*
X216300000Y-81000000D02*
X216300000Y-77527599D01*
X219100000Y-83555000D02*
X218155002Y-84499998D01*
X216300000Y-81000000D02*
X217900000Y-81000000D01*
X219100000Y-82200000D02*
X219100000Y-83555000D01*
X217900000Y-81000000D02*
X219100000Y-82200000D01*
%TD*%
%TA.AperFunction,Conductor*%
%TO.N,GND*%
G36*
X212273039Y-86249685D02*
G01*
X212318794Y-86302489D01*
X212330000Y-86354000D01*
X212330000Y-89406000D01*
X212310315Y-89473039D01*
X212257511Y-89518794D01*
X212206000Y-89530000D01*
X210024000Y-89530000D01*
X209956961Y-89510315D01*
X209911206Y-89457511D01*
X209900000Y-89406000D01*
X209900000Y-86354000D01*
X209919685Y-86286961D01*
X209972489Y-86241206D01*
X210024000Y-86230000D01*
X212206000Y-86230000D01*
X212273039Y-86249685D01*
G37*
%TD.AperFunction*%
%TD*%
%TA.AperFunction,Conductor*%
%TO.N,VBUS*%
G36*
X198928664Y-74115216D02*
G01*
X209448331Y-74738092D01*
X209514088Y-74761703D01*
X209556642Y-74817120D01*
X209565000Y-74861874D01*
X209565000Y-78251000D01*
X209545315Y-78318039D01*
X209492511Y-78363794D01*
X209441000Y-78375000D01*
X204251699Y-78375000D01*
X204218897Y-78370583D01*
X196816198Y-76340015D01*
X196756754Y-76303298D01*
X196726597Y-76240271D01*
X196725000Y-76220432D01*
X196725000Y-74239000D01*
X196744685Y-74171961D01*
X196797489Y-74126206D01*
X196849000Y-74115000D01*
X198921336Y-74115000D01*
X198928664Y-74115216D01*
G37*
%TD.AperFunction*%
%TD*%
%TA.AperFunction,Conductor*%
%TO.N,/coil+*%
G36*
X209508039Y-79004685D02*
G01*
X209553794Y-79057489D01*
X209565000Y-79109000D01*
X209565000Y-82516211D01*
X209545315Y-82583250D01*
X209492511Y-82629005D01*
X209468709Y-82637075D01*
X198913679Y-85056864D01*
X198885970Y-85060000D01*
X196824000Y-85060000D01*
X196756961Y-85040315D01*
X196711206Y-84987511D01*
X196700000Y-84936000D01*
X196700000Y-82935667D01*
X196719685Y-82868628D01*
X196767289Y-82825395D01*
X199762917Y-81284843D01*
X204208309Y-78998727D01*
X204265018Y-78985000D01*
X209441000Y-78985000D01*
X209508039Y-79004685D01*
G37*
%TD.AperFunction*%
%TD*%
%TA.AperFunction,Conductor*%
%TO.N,/coil-*%
G36*
X208943039Y-84929685D02*
G01*
X208988794Y-84982489D01*
X209000000Y-85034000D01*
X209000000Y-89296000D01*
X208980315Y-89363039D01*
X208927511Y-89408794D01*
X208876000Y-89420000D01*
X204358008Y-89420000D01*
X204342064Y-89418971D01*
X197679152Y-88555076D01*
X197615200Y-88526935D01*
X197610989Y-88523221D01*
X196769893Y-87746824D01*
X196733984Y-87686888D01*
X196730000Y-87655708D01*
X196730000Y-87235094D01*
X196743796Y-87178252D01*
X196949184Y-86780050D01*
X196997408Y-86729494D01*
X197029674Y-86716507D01*
X204335363Y-84913611D01*
X204365072Y-84910000D01*
X208876000Y-84910000D01*
X208943039Y-84929685D01*
G37*
%TD.AperFunction*%
%TD*%
M02*
